<?xml version="1.0" standalone="no"?><!DOCTYPE svg PUBLIC "-//W3C//DTD SVG 1.1//EN" "http://www.w3.org/Graphics/SVG/1.1/DTD/svg11.dtd"><svg t="1539665777728" class="icon" style="" viewBox="0 0 1024 1024" version="1.1" xmlns="http://www.w3.org/2000/svg" p-id="17450" xmlns:xlink="http://www.w3.org/1999/xlink" width="64" height="64"><defs><style type="text/css"></style></defs><path d="M214.367811 453.931466c43.094494-143.327336 137.442302-245.472737 309.971727-260.043594 11.845793-1.052982 28.509311-0.090051 42.056861-2.619664 11.664667-2.227738 25.934672-10.416234 39.391149-15.803941 54.68446-21.855774 175.479617-60.119239 236.411361-13.155624 52.968375 40.882106 43.198871 140.197042 10.520611 204.922183 26.130124 51.147914 45.396933 122.435517 34.169217 202.301496-153.276942 6.141884-331.857177 0.813528-480.769718 2.620687 4.997827 77.06826 54.82056 136.131447 128.757502 144.472416 72.219835 8.188496 122.164341-31.460526 154.977677-76.16468l183.878914 0c-47.761794 133.361357-169.20368 236.771565-357.251543 223.315088-42.778292-3.099594-76.05928-15.231913-112.937189-28.92989-61.624523 32.724309-197.983143 81.34261-252.217349 13.124925-41.197284-51.838645-14.735609-146.007375 7.873318-207.509101 45.743834-124.483152 132.821051-247.76085 218.048131-317.874721 0.481977-2.168386 2.63399-2.650363 2.618641-5.26798C312.524364 350.702384 267.156084 406.004921 214.367811 453.931466L214.367811 453.931466 214.367811 453.931466zM860.592838 259.516592c-2.468215-89.349981-121.200386-80.59048-183.863565-44.645826 69.978794 27.215852 121.04996 73.335239 162.835645 128.698151C848.656995 315.480184 861.480045 292.210201 860.592838 259.516592L860.592838 259.516592 860.592838 259.516592zM406.119019 477.593376l291.638173 0C689.253518 294.828842 415.301146 309.6105 406.119019 477.593376L406.119019 477.593376 406.119019 477.593376zM190.721251 798.057061c14.645558 80.921008 131.210367 57.378825 183.922916 21.013593-69.194942-37.632085-112.304785-101.393271-147.181107-173.374676C211.312218 684.622546 181.072497 744.621035 190.721251 798.057061L190.721251 798.057061 190.721251 798.057061zM190.721251 798.057061" p-id="17451" fill="#C5C5C5"></path></svg>